<svg width="187" height="496" viewBox="0 0 187 496" fill="none" xmlns="http://www.w3.org/2000/svg">
<path d="M184.5 88C184.5 135.08 143.903 173.5 93.5 173.5C43.0971 173.5 2.5 135.08 2.5 88C2.5 40.9203 43.0971 2.5 93.5 2.5C143.903 2.5 184.5 40.9203 184.5 88Z" fill="white" stroke="#B4B4B4" stroke-width="5"/>
<line x1="95.5" y1="176" x2="95.5" y2="398" stroke="#B4B4B4" stroke-width="5"/>
<line y1="-2.5" x2="116.331" y2="-2.5" transform="matrix(0.617406 0.786645 -0.85731 0.514801 94.1768 195.489)" stroke="#B4B4B4" stroke-width="5"/>
<line x1="95.5" y1="176" x2="95.5" y2="398" stroke="#B4B4B4" stroke-width="5"/>
<line y1="-2.5" x2="116.331" y2="-2.5" transform="matrix(0.617406 0.786645 -0.85731 0.514801 94.1768 195.489)" stroke="#B4B4B4" stroke-width="5"/>
<line y1="-2.5" x2="116.331" y2="-2.5" transform="matrix(0.617406 0.786645 -0.85731 0.514801 92.723 399.594)" stroke="#B4B4B4" stroke-width="5"/>
<line y1="-2.5" x2="116.331" y2="-1.5" transform="matrix(-0.592411 0.805636 -0.725722 -0.687988 92.3694 193.895)" stroke="#B4B4B4" stroke-width="5"/>
<line y1="-2.5" x2="116.331" y2="-1.5" transform="matrix(-0.592411 0.805636 -0.725722 -0.687988 90.9156 398)" stroke="#B4B4B4" stroke-width="5"/>
</svg>
